<?xml version="1.0" encoding="utf-8" standalone="no"?>
<!DOCTYPE svg PUBLIC "-//W3C//DTD SVG 1.1//EN"
  "http://www.w3.org/Graphics/SVG/1.1/DTD/svg11.dtd">
<!-- Created with matplotlib (https://matplotlib.org/) -->
<svg height="345.6pt" version="1.1" viewBox="0 0 460.8 345.6" width="460.8pt" xmlns="http://www.w3.org/2000/svg" xmlns:xlink="http://www.w3.org/1999/xlink">
 <metadata>
  <rdf:RDF xmlns:cc="http://creativecommons.org/ns#" xmlns:dc="http://purl.org/dc/elements/1.1/" xmlns:rdf="http://www.w3.org/1999/02/22-rdf-syntax-ns#">
   <cc:Work>
    <dc:type rdf:resource="http://purl.org/dc/dcmitype/StillImage"/>
    <dc:date>2024-09-05T19:53:32.375349</dc:date>
    <dc:format>image/svg+xml</dc:format>
    <dc:creator>
     <cc:Agent>
      <dc:title>Matplotlib v3.3.4, https://matplotlib.org/</dc:title>
     </cc:Agent>
    </dc:creator>
   </cc:Work>
  </rdf:RDF>
 </metadata>
 <defs>
  <style type="text/css">*{stroke-linecap:butt;stroke-linejoin:round;}</style>
 </defs>
 <g id="figure_1">
  <g id="patch_1">
   <path d="M 0 345.6 
L 460.8 345.6 
L 460.8 0 
L 0 0 
z
" style="fill:#ffffff;"/>
  </g>
  <g id="axes_1">
   <g id="patch_2">
    <path d="M 57.6 307.584 
L 414.72 307.584 
L 414.72 41.472 
L 57.6 41.472 
z
" style="fill:#ffffff;"/>
   </g>
   <g id="patch_3">
    <path clip-path="url(#pd0fe8ff06c)" d="M 74.554182 307.584 
L 77.44 307.584 
L 77.44 301.715994 
L 74.554182 301.715994 
z
" style="fill:#1f77b4;"/>
   </g>
   <g id="patch_4">
    <path clip-path="url(#pd0fe8ff06c)" d="M 81.768727 307.584 
L 84.654545 307.584 
L 84.654545 257.136661 
L 81.768727 257.136661 
z
" style="fill:#1f77b4;"/>
   </g>
   <g id="patch_5">
    <path clip-path="url(#pd0fe8ff06c)" d="M 88.983273 307.584 
L 91.869091 307.584 
L 91.869091 205.813499 
L 88.983273 205.813499 
z
" style="fill:#1f77b4;"/>
   </g>
   <g id="patch_6">
    <path clip-path="url(#pd0fe8ff06c)" d="M 96.197818 307.584 
L 99.083636 307.584 
L 99.083636 184.005535 
L 96.197818 184.005535 
z
" style="fill:#1f77b4;"/>
   </g>
   <g id="patch_7">
    <path clip-path="url(#pd0fe8ff06c)" d="M 103.412364 307.584 
L 106.298182 307.584 
L 106.298182 185.231686 
L 103.412364 185.231686 
z
" style="fill:#1f77b4;"/>
   </g>
   <g id="patch_8">
    <path clip-path="url(#pd0fe8ff06c)" d="M 110.626909 307.584 
L 113.512727 307.584 
L 113.512727 205.200424 
L 110.626909 205.200424 
z
" style="fill:#1f77b4;"/>
   </g>
   <g id="patch_9">
    <path clip-path="url(#pd0fe8ff06c)" d="M 117.841455 307.584 
L 120.727273 307.584 
L 120.727273 220.089396 
L 117.841455 220.089396 
z
" style="fill:#1f77b4;"/>
   </g>
   <g id="patch_10">
    <path clip-path="url(#pd0fe8ff06c)" d="M 125.056 307.584 
L 127.941818 307.584 
L 127.941818 241.196703 
L 125.056 241.196703 
z
" style="fill:#1f77b4;"/>
   </g>
   <g id="patch_11">
    <path clip-path="url(#pd0fe8ff06c)" d="M 132.270545 307.584 
L 135.156364 307.584 
L 135.156364 253.720955 
L 132.270545 253.720955 
z
" style="fill:#1f77b4;"/>
   </g>
   <g id="patch_12">
    <path clip-path="url(#pd0fe8ff06c)" d="M 139.485091 307.584 
L 142.370909 307.584 
L 142.370909 268.609927 
L 139.485091 268.609927 
z
" style="fill:#1f77b4;"/>
   </g>
   <g id="patch_13">
    <path clip-path="url(#pd0fe8ff06c)" d="M 146.699636 307.584 
L 149.585455 307.584 
L 149.585455 278.769461 
L 146.699636 278.769461 
z
" style="fill:#1f77b4;"/>
   </g>
   <g id="patch_14">
    <path clip-path="url(#pd0fe8ff06c)" d="M 153.914182 307.584 
L 156.8 307.584 
L 156.8 285.863618 
L 153.914182 285.863618 
z
" style="fill:#1f77b4;"/>
   </g>
   <g id="patch_15">
    <path clip-path="url(#pd0fe8ff06c)" d="M 161.128727 307.584 
L 164.014545 307.584 
L 164.014545 290.417891 
L 161.128727 290.417891 
z
" style="fill:#1f77b4;"/>
   </g>
   <g id="patch_16">
    <path clip-path="url(#pd0fe8ff06c)" d="M 168.343273 307.584 
L 171.229091 307.584 
L 171.229091 294.709419 
L 168.343273 294.709419 
z
" style="fill:#1f77b4;"/>
   </g>
   <g id="patch_17">
    <path clip-path="url(#pd0fe8ff06c)" d="M 175.557818 307.584 
L 178.443636 307.584 
L 178.443636 297.599631 
L 175.557818 297.599631 
z
" style="fill:#1f77b4;"/>
   </g>
   <g id="patch_18">
    <path clip-path="url(#pd0fe8ff06c)" d="M 182.772364 307.584 
L 185.658182 307.584 
L 185.658182 299.876768 
L 182.772364 299.876768 
z
" style="fill:#1f77b4;"/>
   </g>
   <g id="patch_19">
    <path clip-path="url(#pd0fe8ff06c)" d="M 189.986909 307.584 
L 192.872727 307.584 
L 192.872727 301.803576 
L 189.986909 301.803576 
z
" style="fill:#1f77b4;"/>
   </g>
   <g id="patch_20">
    <path clip-path="url(#pd0fe8ff06c)" d="M 197.201455 307.584 
L 200.087273 307.584 
L 200.087273 302.153904 
L 197.201455 302.153904 
z
" style="fill:#1f77b4;"/>
   </g>
   <g id="patch_21">
    <path clip-path="url(#pd0fe8ff06c)" d="M 204.416 307.584 
L 207.301818 307.584 
L 207.301818 303.905548 
L 204.416 303.905548 
z
" style="fill:#1f77b4;"/>
   </g>
   <g id="patch_22">
    <path clip-path="url(#pd0fe8ff06c)" d="M 211.630545 307.584 
L 214.516364 307.584 
L 214.516364 305.482028 
L 211.630545 305.482028 
z
" style="fill:#1f77b4;"/>
   </g>
   <g id="patch_23">
    <path clip-path="url(#pd0fe8ff06c)" d="M 218.845091 307.584 
L 221.730909 307.584 
L 221.730909 306.533014 
L 218.845091 306.533014 
z
" style="fill:#1f77b4;"/>
   </g>
   <g id="patch_24">
    <path clip-path="url(#pd0fe8ff06c)" d="M 226.059636 307.584 
L 228.945455 307.584 
L 228.945455 305.657192 
L 226.059636 305.657192 
z
" style="fill:#1f77b4;"/>
   </g>
   <g id="patch_25">
    <path clip-path="url(#pd0fe8ff06c)" d="M 233.274182 307.584 
L 236.16 307.584 
L 236.16 306.79576 
L 233.274182 306.79576 
z
" style="fill:#1f77b4;"/>
   </g>
   <g id="patch_26">
    <path clip-path="url(#pd0fe8ff06c)" d="M 240.488727 307.584 
L 243.374545 307.584 
L 243.374545 307.146089 
L 240.488727 307.146089 
z
" style="fill:#1f77b4;"/>
   </g>
   <g id="patch_27">
    <path clip-path="url(#pd0fe8ff06c)" d="M 247.703273 307.584 
L 250.589091 307.584 
L 250.589091 306.708178 
L 247.703273 306.708178 
z
" style="fill:#1f77b4;"/>
   </g>
   <g id="patch_28">
    <path clip-path="url(#pd0fe8ff06c)" d="M 254.917818 307.584 
L 257.803636 307.584 
L 257.803636 307.233671 
L 254.917818 307.233671 
z
" style="fill:#1f77b4;"/>
   </g>
   <g id="patch_29">
    <path clip-path="url(#pd0fe8ff06c)" d="M 262.132364 307.584 
L 265.018182 307.584 
L 265.018182 307.408836 
L 262.132364 307.408836 
z
" style="fill:#1f77b4;"/>
   </g>
   <g id="patch_30">
    <path clip-path="url(#pd0fe8ff06c)" d="M 269.346909 307.584 
L 272.232727 307.584 
L 272.232727 307.321253 
L 269.346909 307.321253 
z
" style="fill:#1f77b4;"/>
   </g>
   <g id="patch_31">
    <path clip-path="url(#pd0fe8ff06c)" d="M 276.561455 307.584 
L 279.447273 307.584 
L 279.447273 307.321253 
L 276.561455 307.321253 
z
" style="fill:#1f77b4;"/>
   </g>
   <g id="patch_32">
    <path clip-path="url(#pd0fe8ff06c)" d="M 283.776 307.584 
L 286.661818 307.584 
L 286.661818 307.146089 
L 283.776 307.146089 
z
" style="fill:#1f77b4;"/>
   </g>
   <g id="patch_33">
    <path clip-path="url(#pd0fe8ff06c)" d="M 290.990545 307.584 
L 293.876364 307.584 
L 293.876364 307.584 
L 290.990545 307.584 
z
" style="fill:#1f77b4;"/>
   </g>
   <g id="patch_34">
    <path clip-path="url(#pd0fe8ff06c)" d="M 298.205091 307.584 
L 301.090909 307.584 
L 301.090909 307.408836 
L 298.205091 307.408836 
z
" style="fill:#1f77b4;"/>
   </g>
   <g id="patch_35">
    <path clip-path="url(#pd0fe8ff06c)" d="M 305.419636 307.584 
L 308.305455 307.584 
L 308.305455 307.408836 
L 305.419636 307.408836 
z
" style="fill:#1f77b4;"/>
   </g>
   <g id="patch_36">
    <path clip-path="url(#pd0fe8ff06c)" d="M 312.634182 307.584 
L 315.52 307.584 
L 315.52 307.496418 
L 312.634182 307.496418 
z
" style="fill:#1f77b4;"/>
   </g>
   <g id="patch_37">
    <path clip-path="url(#pd0fe8ff06c)" d="M 319.848727 307.584 
L 322.734545 307.584 
L 322.734545 307.584 
L 319.848727 307.584 
z
" style="fill:#1f77b4;"/>
   </g>
   <g id="patch_38">
    <path clip-path="url(#pd0fe8ff06c)" d="M 327.063273 307.584 
L 329.949091 307.584 
L 329.949091 307.496418 
L 327.063273 307.496418 
z
" style="fill:#1f77b4;"/>
   </g>
   <g id="patch_39">
    <path clip-path="url(#pd0fe8ff06c)" d="M 334.277818 307.584 
L 337.163636 307.584 
L 337.163636 307.496418 
L 334.277818 307.496418 
z
" style="fill:#1f77b4;"/>
   </g>
   <g id="patch_40">
    <path clip-path="url(#pd0fe8ff06c)" d="M 341.492364 307.584 
L 344.378182 307.584 
L 344.378182 307.496418 
L 341.492364 307.496418 
z
" style="fill:#1f77b4;"/>
   </g>
   <g id="patch_41">
    <path clip-path="url(#pd0fe8ff06c)" d="M 348.706909 307.584 
L 351.592727 307.584 
L 351.592727 307.584 
L 348.706909 307.584 
z
" style="fill:#1f77b4;"/>
   </g>
   <g id="patch_42">
    <path clip-path="url(#pd0fe8ff06c)" d="M 355.921455 307.584 
L 358.807273 307.584 
L 358.807273 307.584 
L 355.921455 307.584 
z
" style="fill:#1f77b4;"/>
   </g>
   <g id="patch_43">
    <path clip-path="url(#pd0fe8ff06c)" d="M 363.136 307.584 
L 366.021818 307.584 
L 366.021818 307.496418 
L 363.136 307.496418 
z
" style="fill:#1f77b4;"/>
   </g>
   <g id="patch_44">
    <path clip-path="url(#pd0fe8ff06c)" d="M 370.350545 307.584 
L 373.236364 307.584 
L 373.236364 307.584 
L 370.350545 307.584 
z
" style="fill:#1f77b4;"/>
   </g>
   <g id="patch_45">
    <path clip-path="url(#pd0fe8ff06c)" d="M 377.565091 307.584 
L 380.450909 307.584 
L 380.450909 307.584 
L 377.565091 307.584 
z
" style="fill:#1f77b4;"/>
   </g>
   <g id="patch_46">
    <path clip-path="url(#pd0fe8ff06c)" d="M 384.779636 307.584 
L 387.665455 307.584 
L 387.665455 307.584 
L 384.779636 307.584 
z
" style="fill:#1f77b4;"/>
   </g>
   <g id="patch_47">
    <path clip-path="url(#pd0fe8ff06c)" d="M 391.994182 307.584 
L 394.88 307.584 
L 394.88 307.496418 
L 391.994182 307.496418 
z
" style="fill:#1f77b4;"/>
   </g>
   <g id="patch_48">
    <path clip-path="url(#pd0fe8ff06c)" d="M 77.44 307.584 
L 80.325818 307.584 
L 80.325818 287.264933 
L 77.44 287.264933 
z
" style="fill:#ff7f0e;"/>
   </g>
   <g id="patch_49">
    <path clip-path="url(#pd0fe8ff06c)" d="M 84.654545 307.584 
L 87.540364 307.584 
L 87.540364 157.730879 
L 84.654545 157.730879 
z
" style="fill:#ff7f0e;"/>
   </g>
   <g id="patch_50">
    <path clip-path="url(#pd0fe8ff06c)" d="M 91.869091 307.584 
L 94.754909 307.584 
L 94.754909 85.738322 
L 91.869091 85.738322 
z
" style="fill:#ff7f0e;"/>
   </g>
   <g id="patch_51">
    <path clip-path="url(#pd0fe8ff06c)" d="M 99.083636 307.584 
L 101.969455 307.584 
L 101.969455 115.69143 
L 99.083636 115.69143 
z
" style="fill:#ff7f0e;"/>
   </g>
   <g id="patch_52">
    <path clip-path="url(#pd0fe8ff06c)" d="M 106.298182 307.584 
L 109.184 307.584 
L 109.184 178.400275 
L 106.298182 178.400275 
z
" style="fill:#ff7f0e;"/>
   </g>
   <g id="patch_53">
    <path clip-path="url(#pd0fe8ff06c)" d="M 113.512727 307.584 
L 116.398545 307.584 
L 116.398545 232.350902 
L 113.512727 232.350902 
z
" style="fill:#ff7f0e;"/>
   </g>
   <g id="patch_54">
    <path clip-path="url(#pd0fe8ff06c)" d="M 120.727273 307.584 
L 123.613091 307.584 
L 123.613091 269.485749 
L 120.727273 269.485749 
z
" style="fill:#ff7f0e;"/>
   </g>
   <g id="patch_55">
    <path clip-path="url(#pd0fe8ff06c)" d="M 127.941818 307.584 
L 130.827636 307.584 
L 130.827636 287.177351 
L 127.941818 287.177351 
z
" style="fill:#ff7f0e;"/>
   </g>
   <g id="patch_56">
    <path clip-path="url(#pd0fe8ff06c)" d="M 135.156364 307.584 
L 138.042182 307.584 
L 138.042182 294.972165 
L 135.156364 294.972165 
z
" style="fill:#ff7f0e;"/>
   </g>
   <g id="patch_57">
    <path clip-path="url(#pd0fe8ff06c)" d="M 142.370909 307.584 
L 145.256727 307.584 
L 145.256727 299.614021 
L 142.370909 299.614021 
z
" style="fill:#ff7f0e;"/>
   </g>
   <g id="patch_58">
    <path clip-path="url(#pd0fe8ff06c)" d="M 149.585455 307.584 
L 152.471273 307.584 
L 152.471273 304.78137 
L 149.585455 304.78137 
z
" style="fill:#ff7f0e;"/>
   </g>
   <g id="patch_59">
    <path clip-path="url(#pd0fe8ff06c)" d="M 156.8 307.584 
L 159.685818 307.584 
L 159.685818 305.219281 
L 156.8 305.219281 
z
" style="fill:#ff7f0e;"/>
   </g>
   <g id="patch_60">
    <path clip-path="url(#pd0fe8ff06c)" d="M 164.014545 307.584 
L 166.900364 307.584 
L 166.900364 305.744774 
L 164.014545 305.744774 
z
" style="fill:#ff7f0e;"/>
   </g>
   <g id="patch_61">
    <path clip-path="url(#pd0fe8ff06c)" d="M 171.229091 307.584 
L 174.114909 307.584 
L 174.114909 306.79576 
L 171.229091 306.79576 
z
" style="fill:#ff7f0e;"/>
   </g>
   <g id="patch_62">
    <path clip-path="url(#pd0fe8ff06c)" d="M 178.443636 307.584 
L 181.329455 307.584 
L 181.329455 307.321253 
L 178.443636 307.321253 
z
" style="fill:#ff7f0e;"/>
   </g>
   <g id="patch_63">
    <path clip-path="url(#pd0fe8ff06c)" d="M 185.658182 307.584 
L 188.544 307.584 
L 188.544 307.584 
L 185.658182 307.584 
z
" style="fill:#ff7f0e;"/>
   </g>
   <g id="patch_64">
    <path clip-path="url(#pd0fe8ff06c)" d="M 192.872727 307.584 
L 195.758545 307.584 
L 195.758545 307.321253 
L 192.872727 307.321253 
z
" style="fill:#ff7f0e;"/>
   </g>
   <g id="patch_65">
    <path clip-path="url(#pd0fe8ff06c)" d="M 200.087273 307.584 
L 202.973091 307.584 
L 202.973091 307.584 
L 200.087273 307.584 
z
" style="fill:#ff7f0e;"/>
   </g>
   <g id="patch_66">
    <path clip-path="url(#pd0fe8ff06c)" d="M 207.301818 307.584 
L 210.187636 307.584 
L 210.187636 307.496418 
L 207.301818 307.496418 
z
" style="fill:#ff7f0e;"/>
   </g>
   <g id="patch_67">
    <path clip-path="url(#pd0fe8ff06c)" d="M 214.516364 307.584 
L 217.402182 307.584 
L 217.402182 307.584 
L 214.516364 307.584 
z
" style="fill:#ff7f0e;"/>
   </g>
   <g id="patch_68">
    <path clip-path="url(#pd0fe8ff06c)" d="M 221.730909 307.584 
L 224.616727 307.584 
L 224.616727 307.584 
L 221.730909 307.584 
z
" style="fill:#ff7f0e;"/>
   </g>
   <g id="patch_69">
    <path clip-path="url(#pd0fe8ff06c)" d="M 228.945455 307.584 
L 231.831273 307.584 
L 231.831273 307.584 
L 228.945455 307.584 
z
" style="fill:#ff7f0e;"/>
   </g>
   <g id="patch_70">
    <path clip-path="url(#pd0fe8ff06c)" d="M 236.16 307.584 
L 239.045818 307.584 
L 239.045818 307.584 
L 236.16 307.584 
z
" style="fill:#ff7f0e;"/>
   </g>
   <g id="patch_71">
    <path clip-path="url(#pd0fe8ff06c)" d="M 243.374545 307.584 
L 246.260364 307.584 
L 246.260364 307.584 
L 243.374545 307.584 
z
" style="fill:#ff7f0e;"/>
   </g>
   <g id="patch_72">
    <path clip-path="url(#pd0fe8ff06c)" d="M 250.589091 307.584 
L 253.474909 307.584 
L 253.474909 307.584 
L 250.589091 307.584 
z
" style="fill:#ff7f0e;"/>
   </g>
   <g id="patch_73">
    <path clip-path="url(#pd0fe8ff06c)" d="M 257.803636 307.584 
L 260.689455 307.584 
L 260.689455 307.584 
L 257.803636 307.584 
z
" style="fill:#ff7f0e;"/>
   </g>
   <g id="patch_74">
    <path clip-path="url(#pd0fe8ff06c)" d="M 265.018182 307.584 
L 267.904 307.584 
L 267.904 307.584 
L 265.018182 307.584 
z
" style="fill:#ff7f0e;"/>
   </g>
   <g id="patch_75">
    <path clip-path="url(#pd0fe8ff06c)" d="M 272.232727 307.584 
L 275.118545 307.584 
L 275.118545 307.584 
L 272.232727 307.584 
z
" style="fill:#ff7f0e;"/>
   </g>
   <g id="patch_76">
    <path clip-path="url(#pd0fe8ff06c)" d="M 279.447273 307.584 
L 282.333091 307.584 
L 282.333091 307.584 
L 279.447273 307.584 
z
" style="fill:#ff7f0e;"/>
   </g>
   <g id="patch_77">
    <path clip-path="url(#pd0fe8ff06c)" d="M 286.661818 307.584 
L 289.547636 307.584 
L 289.547636 307.584 
L 286.661818 307.584 
z
" style="fill:#ff7f0e;"/>
   </g>
   <g id="patch_78">
    <path clip-path="url(#pd0fe8ff06c)" d="M 293.876364 307.584 
L 296.762182 307.584 
L 296.762182 307.584 
L 293.876364 307.584 
z
" style="fill:#ff7f0e;"/>
   </g>
   <g id="patch_79">
    <path clip-path="url(#pd0fe8ff06c)" d="M 301.090909 307.584 
L 303.976727 307.584 
L 303.976727 307.584 
L 301.090909 307.584 
z
" style="fill:#ff7f0e;"/>
   </g>
   <g id="patch_80">
    <path clip-path="url(#pd0fe8ff06c)" d="M 308.305455 307.584 
L 311.191273 307.584 
L 311.191273 307.584 
L 308.305455 307.584 
z
" style="fill:#ff7f0e;"/>
   </g>
   <g id="patch_81">
    <path clip-path="url(#pd0fe8ff06c)" d="M 315.52 307.584 
L 318.405818 307.584 
L 318.405818 307.584 
L 315.52 307.584 
z
" style="fill:#ff7f0e;"/>
   </g>
   <g id="patch_82">
    <path clip-path="url(#pd0fe8ff06c)" d="M 322.734545 307.584 
L 325.620364 307.584 
L 325.620364 307.584 
L 322.734545 307.584 
z
" style="fill:#ff7f0e;"/>
   </g>
   <g id="patch_83">
    <path clip-path="url(#pd0fe8ff06c)" d="M 329.949091 307.584 
L 332.834909 307.584 
L 332.834909 307.584 
L 329.949091 307.584 
z
" style="fill:#ff7f0e;"/>
   </g>
   <g id="patch_84">
    <path clip-path="url(#pd0fe8ff06c)" d="M 337.163636 307.584 
L 340.049455 307.584 
L 340.049455 307.584 
L 337.163636 307.584 
z
" style="fill:#ff7f0e;"/>
   </g>
   <g id="patch_85">
    <path clip-path="url(#pd0fe8ff06c)" d="M 344.378182 307.584 
L 347.264 307.584 
L 347.264 307.584 
L 344.378182 307.584 
z
" style="fill:#ff7f0e;"/>
   </g>
   <g id="patch_86">
    <path clip-path="url(#pd0fe8ff06c)" d="M 351.592727 307.584 
L 354.478545 307.584 
L 354.478545 307.584 
L 351.592727 307.584 
z
" style="fill:#ff7f0e;"/>
   </g>
   <g id="patch_87">
    <path clip-path="url(#pd0fe8ff06c)" d="M 358.807273 307.584 
L 361.693091 307.584 
L 361.693091 307.584 
L 358.807273 307.584 
z
" style="fill:#ff7f0e;"/>
   </g>
   <g id="patch_88">
    <path clip-path="url(#pd0fe8ff06c)" d="M 366.021818 307.584 
L 368.907636 307.584 
L 368.907636 307.584 
L 366.021818 307.584 
z
" style="fill:#ff7f0e;"/>
   </g>
   <g id="patch_89">
    <path clip-path="url(#pd0fe8ff06c)" d="M 373.236364 307.584 
L 376.122182 307.584 
L 376.122182 307.584 
L 373.236364 307.584 
z
" style="fill:#ff7f0e;"/>
   </g>
   <g id="patch_90">
    <path clip-path="url(#pd0fe8ff06c)" d="M 380.450909 307.584 
L 383.336727 307.584 
L 383.336727 307.584 
L 380.450909 307.584 
z
" style="fill:#ff7f0e;"/>
   </g>
   <g id="patch_91">
    <path clip-path="url(#pd0fe8ff06c)" d="M 387.665455 307.584 
L 390.551273 307.584 
L 390.551273 307.584 
L 387.665455 307.584 
z
" style="fill:#ff7f0e;"/>
   </g>
   <g id="patch_92">
    <path clip-path="url(#pd0fe8ff06c)" d="M 394.88 307.584 
L 397.765818 307.584 
L 397.765818 307.584 
L 394.88 307.584 
z
" style="fill:#ff7f0e;"/>
   </g>
   <g id="matplotlib.axis_1">
    <g id="xtick_1">
     <g id="line2d_1">
      <defs>
       <path d="M 0 0 
L 0 3.5 
" id="mc2f6acd8af" style="stroke:#000000;stroke-width:0.8;"/>
      </defs>
      <g>
       <use style="stroke:#000000;stroke-width:0.8;" x="69.794166" xlink:href="#mc2f6acd8af" y="307.584"/>
      </g>
     </g>
     <g id="text_1">
      <!-- 0 -->
      <g transform="translate(66.612916 322.182437)scale(0.1 -0.1)">
       <defs>
        <path d="M 31.78125 66.40625 
Q 24.171875 66.40625 20.328125 58.90625 
Q 16.5 51.421875 16.5 36.375 
Q 16.5 21.390625 20.328125 13.890625 
Q 24.171875 6.390625 31.78125 6.390625 
Q 39.453125 6.390625 43.28125 13.890625 
Q 47.125 21.390625 47.125 36.375 
Q 47.125 51.421875 43.28125 58.90625 
Q 39.453125 66.40625 31.78125 66.40625 
z
M 31.78125 74.21875 
Q 44.046875 74.21875 50.515625 64.515625 
Q 56.984375 54.828125 56.984375 36.375 
Q 56.984375 17.96875 50.515625 8.265625 
Q 44.046875 -1.421875 31.78125 -1.421875 
Q 19.53125 -1.421875 13.0625 8.265625 
Q 6.59375 17.96875 6.59375 36.375 
Q 6.59375 54.828125 13.0625 64.515625 
Q 19.53125 74.21875 31.78125 74.21875 
z
" id="DejaVuSans-48"/>
       </defs>
       <use xlink:href="#DejaVuSans-48"/>
      </g>
     </g>
    </g>
    <g id="xtick_2">
     <g id="line2d_2">
      <g>
       <use style="stroke:#000000;stroke-width:0.8;" x="109.983874" xlink:href="#mc2f6acd8af" y="307.584"/>
      </g>
     </g>
     <g id="text_2">
      <!-- 5 -->
      <g transform="translate(106.802624 322.182437)scale(0.1 -0.1)">
       <defs>
        <path d="M 10.796875 72.90625 
L 49.515625 72.90625 
L 49.515625 64.59375 
L 19.828125 64.59375 
L 19.828125 46.734375 
Q 21.96875 47.46875 24.109375 47.828125 
Q 26.265625 48.1875 28.421875 48.1875 
Q 40.625 48.1875 47.75 41.5 
Q 54.890625 34.8125 54.890625 23.390625 
Q 54.890625 11.625 47.5625 5.09375 
Q 40.234375 -1.421875 26.90625 -1.421875 
Q 22.3125 -1.421875 17.546875 -0.640625 
Q 12.796875 0.140625 7.71875 1.703125 
L 7.71875 11.625 
Q 12.109375 9.234375 16.796875 8.0625 
Q 21.484375 6.890625 26.703125 6.890625 
Q 35.15625 6.890625 40.078125 11.328125 
Q 45.015625 15.765625 45.015625 23.390625 
Q 45.015625 31 40.078125 35.4375 
Q 35.15625 39.890625 26.703125 39.890625 
Q 22.75 39.890625 18.8125 39.015625 
Q 14.890625 38.140625 10.796875 36.28125 
z
" id="DejaVuSans-53"/>
       </defs>
       <use xlink:href="#DejaVuSans-53"/>
      </g>
     </g>
    </g>
    <g id="xtick_3">
     <g id="line2d_3">
      <g>
       <use style="stroke:#000000;stroke-width:0.8;" x="150.173582" xlink:href="#mc2f6acd8af" y="307.584"/>
      </g>
     </g>
     <g id="text_3">
      <!-- 10 -->
      <g transform="translate(143.811082 322.182437)scale(0.1 -0.1)">
       <defs>
        <path d="M 12.40625 8.296875 
L 28.515625 8.296875 
L 28.515625 63.921875 
L 10.984375 60.40625 
L 10.984375 69.390625 
L 28.421875 72.90625 
L 38.28125 72.90625 
L 38.28125 8.296875 
L 54.390625 8.296875 
L 54.390625 0 
L 12.40625 0 
z
" id="DejaVuSans-49"/>
       </defs>
       <use xlink:href="#DejaVuSans-49"/>
       <use x="63.623047" xlink:href="#DejaVuSans-48"/>
      </g>
     </g>
    </g>
    <g id="xtick_4">
     <g id="line2d_4">
      <g>
       <use style="stroke:#000000;stroke-width:0.8;" x="190.363289" xlink:href="#mc2f6acd8af" y="307.584"/>
      </g>
     </g>
     <g id="text_4">
      <!-- 15 -->
      <g transform="translate(184.000789 322.182437)scale(0.1 -0.1)">
       <use xlink:href="#DejaVuSans-49"/>
       <use x="63.623047" xlink:href="#DejaVuSans-53"/>
      </g>
     </g>
    </g>
    <g id="xtick_5">
     <g id="line2d_5">
      <g>
       <use style="stroke:#000000;stroke-width:0.8;" x="230.552997" xlink:href="#mc2f6acd8af" y="307.584"/>
      </g>
     </g>
     <g id="text_5">
      <!-- 20 -->
      <g transform="translate(224.190497 322.182437)scale(0.1 -0.1)">
       <defs>
        <path d="M 19.1875 8.296875 
L 53.609375 8.296875 
L 53.609375 0 
L 7.328125 0 
L 7.328125 8.296875 
Q 12.9375 14.109375 22.625 23.890625 
Q 32.328125 33.6875 34.8125 36.53125 
Q 39.546875 41.84375 41.421875 45.53125 
Q 43.3125 49.21875 43.3125 52.78125 
Q 43.3125 58.59375 39.234375 62.25 
Q 35.15625 65.921875 28.609375 65.921875 
Q 23.96875 65.921875 18.8125 64.3125 
Q 13.671875 62.703125 7.8125 59.421875 
L 7.8125 69.390625 
Q 13.765625 71.78125 18.9375 73 
Q 24.125 74.21875 28.421875 74.21875 
Q 39.75 74.21875 46.484375 68.546875 
Q 53.21875 62.890625 53.21875 53.421875 
Q 53.21875 48.921875 51.53125 44.890625 
Q 49.859375 40.875 45.40625 35.40625 
Q 44.1875 33.984375 37.640625 27.21875 
Q 31.109375 20.453125 19.1875 8.296875 
z
" id="DejaVuSans-50"/>
       </defs>
       <use xlink:href="#DejaVuSans-50"/>
       <use x="63.623047" xlink:href="#DejaVuSans-48"/>
      </g>
     </g>
    </g>
    <g id="xtick_6">
     <g id="line2d_6">
      <g>
       <use style="stroke:#000000;stroke-width:0.8;" x="270.742705" xlink:href="#mc2f6acd8af" y="307.584"/>
      </g>
     </g>
     <g id="text_6">
      <!-- 25 -->
      <g transform="translate(264.380205 322.182437)scale(0.1 -0.1)">
       <use xlink:href="#DejaVuSans-50"/>
       <use x="63.623047" xlink:href="#DejaVuSans-53"/>
      </g>
     </g>
    </g>
    <g id="xtick_7">
     <g id="line2d_7">
      <g>
       <use style="stroke:#000000;stroke-width:0.8;" x="310.932413" xlink:href="#mc2f6acd8af" y="307.584"/>
      </g>
     </g>
     <g id="text_7">
      <!-- 30 -->
      <g transform="translate(304.569913 322.182437)scale(0.1 -0.1)">
       <defs>
        <path d="M 40.578125 39.3125 
Q 47.65625 37.796875 51.625 33 
Q 55.609375 28.21875 55.609375 21.1875 
Q 55.609375 10.40625 48.1875 4.484375 
Q 40.765625 -1.421875 27.09375 -1.421875 
Q 22.515625 -1.421875 17.65625 -0.515625 
Q 12.796875 0.390625 7.625 2.203125 
L 7.625 11.71875 
Q 11.71875 9.328125 16.59375 8.109375 
Q 21.484375 6.890625 26.8125 6.890625 
Q 36.078125 6.890625 40.9375 10.546875 
Q 45.796875 14.203125 45.796875 21.1875 
Q 45.796875 27.640625 41.28125 31.265625 
Q 36.765625 34.90625 28.71875 34.90625 
L 20.21875 34.90625 
L 20.21875 43.015625 
L 29.109375 43.015625 
Q 36.375 43.015625 40.234375 45.921875 
Q 44.09375 48.828125 44.09375 54.296875 
Q 44.09375 59.90625 40.109375 62.90625 
Q 36.140625 65.921875 28.71875 65.921875 
Q 24.65625 65.921875 20.015625 65.03125 
Q 15.375 64.15625 9.8125 62.3125 
L 9.8125 71.09375 
Q 15.4375 72.65625 20.34375 73.4375 
Q 25.25 74.21875 29.59375 74.21875 
Q 40.828125 74.21875 47.359375 69.109375 
Q 53.90625 64.015625 53.90625 55.328125 
Q 53.90625 49.265625 50.4375 45.09375 
Q 46.96875 40.921875 40.578125 39.3125 
z
" id="DejaVuSans-51"/>
       </defs>
       <use xlink:href="#DejaVuSans-51"/>
       <use x="63.623047" xlink:href="#DejaVuSans-48"/>
      </g>
     </g>
    </g>
    <g id="xtick_8">
     <g id="line2d_8">
      <g>
       <use style="stroke:#000000;stroke-width:0.8;" x="351.122121" xlink:href="#mc2f6acd8af" y="307.584"/>
      </g>
     </g>
     <g id="text_8">
      <!-- 35 -->
      <g transform="translate(344.759621 322.182437)scale(0.1 -0.1)">
       <use xlink:href="#DejaVuSans-51"/>
       <use x="63.623047" xlink:href="#DejaVuSans-53"/>
      </g>
     </g>
    </g>
    <g id="xtick_9">
     <g id="line2d_9">
      <g>
       <use style="stroke:#000000;stroke-width:0.8;" x="391.311828" xlink:href="#mc2f6acd8af" y="307.584"/>
      </g>
     </g>
     <g id="text_9">
      <!-- 40 -->
      <g transform="translate(384.949328 322.182437)scale(0.1 -0.1)">
       <defs>
        <path d="M 37.796875 64.3125 
L 12.890625 25.390625 
L 37.796875 25.390625 
z
M 35.203125 72.90625 
L 47.609375 72.90625 
L 47.609375 25.390625 
L 58.015625 25.390625 
L 58.015625 17.1875 
L 47.609375 17.1875 
L 47.609375 0 
L 37.796875 0 
L 37.796875 17.1875 
L 4.890625 17.1875 
L 4.890625 26.703125 
z
" id="DejaVuSans-52"/>
       </defs>
       <use xlink:href="#DejaVuSans-52"/>
       <use x="63.623047" xlink:href="#DejaVuSans-48"/>
      </g>
     </g>
    </g>
    <g id="text_10">
     <!-- Amount -->
     <g transform="translate(216.512344 335.860562)scale(0.1 -0.1)">
      <defs>
       <path d="M 34.1875 63.1875 
L 20.796875 26.90625 
L 47.609375 26.90625 
z
M 28.609375 72.90625 
L 39.796875 72.90625 
L 67.578125 0 
L 57.328125 0 
L 50.6875 18.703125 
L 17.828125 18.703125 
L 11.1875 0 
L 0.78125 0 
z
" id="DejaVuSans-65"/>
       <path d="M 52 44.1875 
Q 55.375 50.25 60.0625 53.125 
Q 64.75 56 71.09375 56 
Q 79.640625 56 84.28125 50.015625 
Q 88.921875 44.046875 88.921875 33.015625 
L 88.921875 0 
L 79.890625 0 
L 79.890625 32.71875 
Q 79.890625 40.578125 77.09375 44.375 
Q 74.3125 48.1875 68.609375 48.1875 
Q 61.625 48.1875 57.5625 43.546875 
Q 53.515625 38.921875 53.515625 30.90625 
L 53.515625 0 
L 44.484375 0 
L 44.484375 32.71875 
Q 44.484375 40.625 41.703125 44.40625 
Q 38.921875 48.1875 33.109375 48.1875 
Q 26.21875 48.1875 22.15625 43.53125 
Q 18.109375 38.875 18.109375 30.90625 
L 18.109375 0 
L 9.078125 0 
L 9.078125 54.6875 
L 18.109375 54.6875 
L 18.109375 46.1875 
Q 21.1875 51.21875 25.484375 53.609375 
Q 29.78125 56 35.6875 56 
Q 41.65625 56 45.828125 52.96875 
Q 50 49.953125 52 44.1875 
z
" id="DejaVuSans-109"/>
       <path d="M 30.609375 48.390625 
Q 23.390625 48.390625 19.1875 42.75 
Q 14.984375 37.109375 14.984375 27.296875 
Q 14.984375 17.484375 19.15625 11.84375 
Q 23.34375 6.203125 30.609375 6.203125 
Q 37.796875 6.203125 41.984375 11.859375 
Q 46.1875 17.53125 46.1875 27.296875 
Q 46.1875 37.015625 41.984375 42.703125 
Q 37.796875 48.390625 30.609375 48.390625 
z
M 30.609375 56 
Q 42.328125 56 49.015625 48.375 
Q 55.71875 40.765625 55.71875 27.296875 
Q 55.71875 13.875 49.015625 6.21875 
Q 42.328125 -1.421875 30.609375 -1.421875 
Q 18.84375 -1.421875 12.171875 6.21875 
Q 5.515625 13.875 5.515625 27.296875 
Q 5.515625 40.765625 12.171875 48.375 
Q 18.84375 56 30.609375 56 
z
" id="DejaVuSans-111"/>
       <path d="M 8.5 21.578125 
L 8.5 54.6875 
L 17.484375 54.6875 
L 17.484375 21.921875 
Q 17.484375 14.15625 20.5 10.265625 
Q 23.53125 6.390625 29.59375 6.390625 
Q 36.859375 6.390625 41.078125 11.03125 
Q 45.3125 15.671875 45.3125 23.6875 
L 45.3125 54.6875 
L 54.296875 54.6875 
L 54.296875 0 
L 45.3125 0 
L 45.3125 8.40625 
Q 42.046875 3.421875 37.71875 1 
Q 33.40625 -1.421875 27.6875 -1.421875 
Q 18.265625 -1.421875 13.375 4.4375 
Q 8.5 10.296875 8.5 21.578125 
z
M 31.109375 56 
z
" id="DejaVuSans-117"/>
       <path d="M 54.890625 33.015625 
L 54.890625 0 
L 45.90625 0 
L 45.90625 32.71875 
Q 45.90625 40.484375 42.875 44.328125 
Q 39.84375 48.1875 33.796875 48.1875 
Q 26.515625 48.1875 22.3125 43.546875 
Q 18.109375 38.921875 18.109375 30.90625 
L 18.109375 0 
L 9.078125 0 
L 9.078125 54.6875 
L 18.109375 54.6875 
L 18.109375 46.1875 
Q 21.34375 51.125 25.703125 53.5625 
Q 30.078125 56 35.796875 56 
Q 45.21875 56 50.046875 50.171875 
Q 54.890625 44.34375 54.890625 33.015625 
z
" id="DejaVuSans-110"/>
       <path d="M 18.3125 70.21875 
L 18.3125 54.6875 
L 36.8125 54.6875 
L 36.8125 47.703125 
L 18.3125 47.703125 
L 18.3125 18.015625 
Q 18.3125 11.328125 20.140625 9.421875 
Q 21.96875 7.515625 27.59375 7.515625 
L 36.8125 7.515625 
L 36.8125 0 
L 27.59375 0 
Q 17.1875 0 13.234375 3.875 
Q 9.28125 7.765625 9.28125 18.015625 
L 9.28125 47.703125 
L 2.6875 47.703125 
L 2.6875 54.6875 
L 9.28125 54.6875 
L 9.28125 70.21875 
z
" id="DejaVuSans-116"/>
      </defs>
      <use xlink:href="#DejaVuSans-65"/>
      <use x="68.408203" xlink:href="#DejaVuSans-109"/>
      <use x="165.820312" xlink:href="#DejaVuSans-111"/>
      <use x="227.001953" xlink:href="#DejaVuSans-117"/>
      <use x="290.380859" xlink:href="#DejaVuSans-110"/>
      <use x="353.759766" xlink:href="#DejaVuSans-116"/>
     </g>
    </g>
   </g>
   <g id="matplotlib.axis_2">
    <g id="ytick_1">
     <g id="line2d_10">
      <defs>
       <path d="M 0 0 
L -3.5 0 
" id="mdc4740ea49" style="stroke:#000000;stroke-width:0.8;"/>
      </defs>
      <g>
       <use style="stroke:#000000;stroke-width:0.8;" x="57.6" xlink:href="#mdc4740ea49" y="307.584"/>
      </g>
     </g>
     <g id="text_11">
      <!-- 0.00 -->
      <g transform="translate(28.334375 311.383219)scale(0.1 -0.1)">
       <defs>
        <path d="M 10.6875 12.40625 
L 21 12.40625 
L 21 0 
L 10.6875 0 
z
" id="DejaVuSans-46"/>
       </defs>
       <use xlink:href="#DejaVuSans-48"/>
       <use x="63.623047" xlink:href="#DejaVuSans-46"/>
       <use x="95.410156" xlink:href="#DejaVuSans-48"/>
       <use x="159.033203" xlink:href="#DejaVuSans-48"/>
      </g>
     </g>
    </g>
    <g id="ytick_2">
     <g id="line2d_11">
      <g>
       <use style="stroke:#000000;stroke-width:0.8;" x="57.6" xlink:href="#mdc4740ea49" y="268.278808"/>
      </g>
     </g>
     <g id="text_12">
      <!-- 0.05 -->
      <g transform="translate(28.334375 272.078027)scale(0.1 -0.1)">
       <use xlink:href="#DejaVuSans-48"/>
       <use x="63.623047" xlink:href="#DejaVuSans-46"/>
       <use x="95.410156" xlink:href="#DejaVuSans-48"/>
       <use x="159.033203" xlink:href="#DejaVuSans-53"/>
      </g>
     </g>
    </g>
    <g id="ytick_3">
     <g id="line2d_12">
      <g>
       <use style="stroke:#000000;stroke-width:0.8;" x="57.6" xlink:href="#mdc4740ea49" y="228.973617"/>
      </g>
     </g>
     <g id="text_13">
      <!-- 0.10 -->
      <g transform="translate(28.334375 232.772836)scale(0.1 -0.1)">
       <use xlink:href="#DejaVuSans-48"/>
       <use x="63.623047" xlink:href="#DejaVuSans-46"/>
       <use x="95.410156" xlink:href="#DejaVuSans-49"/>
       <use x="159.033203" xlink:href="#DejaVuSans-48"/>
      </g>
     </g>
    </g>
    <g id="ytick_4">
     <g id="line2d_13">
      <g>
       <use style="stroke:#000000;stroke-width:0.8;" x="57.6" xlink:href="#mdc4740ea49" y="189.668425"/>
      </g>
     </g>
     <g id="text_14">
      <!-- 0.15 -->
      <g transform="translate(28.334375 193.467644)scale(0.1 -0.1)">
       <use xlink:href="#DejaVuSans-48"/>
       <use x="63.623047" xlink:href="#DejaVuSans-46"/>
       <use x="95.410156" xlink:href="#DejaVuSans-49"/>
       <use x="159.033203" xlink:href="#DejaVuSans-53"/>
      </g>
     </g>
    </g>
    <g id="ytick_5">
     <g id="line2d_14">
      <g>
       <use style="stroke:#000000;stroke-width:0.8;" x="57.6" xlink:href="#mdc4740ea49" y="150.363234"/>
      </g>
     </g>
     <g id="text_15">
      <!-- 0.20 -->
      <g transform="translate(28.334375 154.162453)scale(0.1 -0.1)">
       <use xlink:href="#DejaVuSans-48"/>
       <use x="63.623047" xlink:href="#DejaVuSans-46"/>
       <use x="95.410156" xlink:href="#DejaVuSans-50"/>
       <use x="159.033203" xlink:href="#DejaVuSans-48"/>
      </g>
     </g>
    </g>
    <g id="ytick_6">
     <g id="line2d_15">
      <g>
       <use style="stroke:#000000;stroke-width:0.8;" x="57.6" xlink:href="#mdc4740ea49" y="111.058042"/>
      </g>
     </g>
     <g id="text_16">
      <!-- 0.25 -->
      <g transform="translate(28.334375 114.857261)scale(0.1 -0.1)">
       <use xlink:href="#DejaVuSans-48"/>
       <use x="63.623047" xlink:href="#DejaVuSans-46"/>
       <use x="95.410156" xlink:href="#DejaVuSans-50"/>
       <use x="159.033203" xlink:href="#DejaVuSans-53"/>
      </g>
     </g>
    </g>
    <g id="ytick_7">
     <g id="line2d_16">
      <g>
       <use style="stroke:#000000;stroke-width:0.8;" x="57.6" xlink:href="#mdc4740ea49" y="71.752851"/>
      </g>
     </g>
     <g id="text_17">
      <!-- 0.30 -->
      <g transform="translate(28.334375 75.552069)scale(0.1 -0.1)">
       <use xlink:href="#DejaVuSans-48"/>
       <use x="63.623047" xlink:href="#DejaVuSans-46"/>
       <use x="95.410156" xlink:href="#DejaVuSans-51"/>
       <use x="159.033203" xlink:href="#DejaVuSans-48"/>
      </g>
     </g>
    </g>
   </g>
   <g id="LineCollection_1">
    <path clip-path="url(#pd0fe8ff06c)" d="M 87.553386 307.584 
L 87.553386 54.144 
" style="fill:none;stroke:#000000;stroke-dasharray:5.55,2.4;stroke-dashoffset:0;stroke-width:1.5;"/>
   </g>
   <g id="line2d_17">
    <path clip-path="url(#pd0fe8ff06c)" d="M 75.34423 306.64498 
L 75.991163 305.859805 
L 76.638096 304.704374 
L 77.285029 303.120646 
L 77.931962 301.068948 
L 78.902362 297.076457 
L 79.872761 292.006084 
L 81.166627 283.745279 
L 82.78396 271.568479 
L 85.695158 247.27467 
L 88.28289 226.463132 
L 89.900223 214.982308 
L 91.517555 205.088747 
L 92.811421 198.426023 
L 94.105287 192.902323 
L 95.399154 188.499246 
L 96.369553 185.90466 
L 97.339953 183.886362 
L 98.310352 182.411961 
L 99.280752 181.445974 
L 99.927685 181.066044 
L 100.574618 180.884194 
L 101.221551 180.889069 
L 101.868484 181.069358 
L 102.838883 181.644265 
L 103.809283 182.551826 
L 104.779682 183.756501 
L 106.073548 185.766608 
L 107.690881 188.823742 
L 109.63168 193.117668 
L 111.895945 198.740812 
L 115.130611 207.436461 
L 123.864206 231.209455 
L 127.422338 240.068952 
L 130.657003 247.483572 
L 133.568202 253.601346 
L 136.4794 259.190625 
L 139.390599 264.266114 
L 142.301797 268.852962 
L 145.212996 272.982484 
L 148.124195 276.689118 
L 151.035393 280.008305 
L 153.946592 282.975059 
L 156.85779 285.623031 
L 159.768989 287.983941 
L 163.003654 290.306268 
L 166.238319 292.347509 
L 169.472984 294.141005 
L 173.031116 295.8632 
L 176.912714 297.482271 
L 181.117778 298.974879 
L 185.64631 300.326083 
L 190.498307 301.528684 
L 195.673771 302.582183 
L 201.496169 303.539187 
L 207.965499 304.378612 
L 215.405228 305.120109 
L 224.138824 305.763924 
L 234.813219 306.316115 
L 248.075346 306.764426 
L 265.219071 307.108252 
L 289.479059 307.355552 
L 328.941973 307.508916 
L 398.487273 307.571075 
L 398.487273 307.571075 
" style="fill:none;stroke:#2ca02c;stroke-linecap:square;stroke-width:1.5;"/>
   </g>
   <g id="line2d_18">
    <path clip-path="url(#pd0fe8ff06c)" d="M 73.832727 307.460271 
L 74.373356 307.225897 
L 74.913985 306.723908 
L 75.319457 306.075568 
L 75.860085 304.701585 
L 76.400714 302.572145 
L 76.941343 299.511826 
L 77.617129 294.163406 
L 78.292915 286.963684 
L 79.103858 275.827397 
L 80.049959 259.635099 
L 81.266374 234.809118 
L 86.26719 127.162126 
L 87.348448 110.108424 
L 88.294548 98.111003 
L 89.240649 88.91403 
L 90.051592 83.219189 
L 90.727378 79.950798 
L 91.268007 78.252861 
L 91.673478 77.486725 
L 92.07895 77.134039 
L 92.349264 77.118637 
L 92.619579 77.271831 
L 93.02505 77.804014 
L 93.565679 79.044698 
L 94.241465 81.377321 
L 95.052408 85.192629 
L 95.998509 90.835538 
L 97.214924 99.595561 
L 98.83681 113.14698 
L 101.404797 136.880081 
L 105.729828 176.871506 
L 108.162657 197.178582 
L 110.325173 213.334534 
L 112.352531 226.769389 
L 114.244732 237.841104 
L 116.136933 247.573098 
L 117.893976 255.500274 
L 119.65102 262.453879 
L 121.408064 268.529439 
L 123.165107 273.820717 
L 124.922151 278.416848 
L 126.679195 282.400657 
L 128.436238 285.847812 
L 130.193282 288.826557 
L 131.950326 291.397822 
L 133.842526 293.772928 
L 135.734727 295.796977 
L 137.762085 297.633993 
L 139.789443 299.180588 
L 141.951959 300.561697 
L 144.249631 301.77639 
L 146.817618 302.881686 
L 149.655919 303.854543 
L 152.764535 304.684919 
L 156.41378 305.420894 
L 160.603653 306.032472 
L 165.739627 306.545462 
L 172.092015 306.946056 
L 180.606919 307.246688 
L 193.17654 307.44794 
L 208.854775 307.537809 
L 208.854775 307.537809 
" style="fill:none;stroke:#d62728;stroke-linecap:square;stroke-width:1.5;"/>
   </g>
   <g id="patch_93">
    <path d="M 57.6 307.584 
L 57.6 41.472 
" style="fill:none;stroke:#000000;stroke-linecap:square;stroke-linejoin:miter;stroke-width:0.8;"/>
   </g>
   <g id="patch_94">
    <path d="M 414.72 307.584 
L 414.72 41.472 
" style="fill:none;stroke:#000000;stroke-linecap:square;stroke-linejoin:miter;stroke-width:0.8;"/>
   </g>
   <g id="patch_95">
    <path d="M 57.6 307.584 
L 414.72 307.584 
" style="fill:none;stroke:#000000;stroke-linecap:square;stroke-linejoin:miter;stroke-width:0.8;"/>
   </g>
   <g id="patch_96">
    <path d="M 57.6 41.472 
L 414.72 41.472 
" style="fill:none;stroke:#000000;stroke-linecap:square;stroke-linejoin:miter;stroke-width:0.8;"/>
   </g>
   <g id="text_18">
    <!-- PDF -->
    <g transform="translate(224.47125 35.472)scale(0.12 -0.12)">
     <defs>
      <path d="M 19.671875 64.796875 
L 19.671875 37.40625 
L 32.078125 37.40625 
Q 38.96875 37.40625 42.71875 40.96875 
Q 46.484375 44.53125 46.484375 51.125 
Q 46.484375 57.671875 42.71875 61.234375 
Q 38.96875 64.796875 32.078125 64.796875 
z
M 9.8125 72.90625 
L 32.078125 72.90625 
Q 44.34375 72.90625 50.609375 67.359375 
Q 56.890625 61.8125 56.890625 51.125 
Q 56.890625 40.328125 50.609375 34.8125 
Q 44.34375 29.296875 32.078125 29.296875 
L 19.671875 29.296875 
L 19.671875 0 
L 9.8125 0 
z
" id="DejaVuSans-80"/>
      <path d="M 19.671875 64.796875 
L 19.671875 8.109375 
L 31.59375 8.109375 
Q 46.6875 8.109375 53.6875 14.9375 
Q 60.6875 21.78125 60.6875 36.53125 
Q 60.6875 51.171875 53.6875 57.984375 
Q 46.6875 64.796875 31.59375 64.796875 
z
M 9.8125 72.90625 
L 30.078125 72.90625 
Q 51.265625 72.90625 61.171875 64.09375 
Q 71.09375 55.28125 71.09375 36.53125 
Q 71.09375 17.671875 61.125 8.828125 
Q 51.171875 0 30.078125 0 
L 9.8125 0 
z
" id="DejaVuSans-68"/>
      <path d="M 9.8125 72.90625 
L 51.703125 72.90625 
L 51.703125 64.59375 
L 19.671875 64.59375 
L 19.671875 43.109375 
L 48.578125 43.109375 
L 48.578125 34.8125 
L 19.671875 34.8125 
L 19.671875 0 
L 9.8125 0 
z
" id="DejaVuSans-70"/>
     </defs>
     <use xlink:href="#DejaVuSans-80"/>
     <use x="60.302734" xlink:href="#DejaVuSans-68"/>
     <use x="137.304688" xlink:href="#DejaVuSans-70"/>
    </g>
   </g>
   <g id="legend_1">
    <g id="patch_97">
     <path d="M 269.72 122.943875 
L 407.72 122.943875 
Q 409.72 122.943875 409.72 120.943875 
L 409.72 48.472 
Q 409.72 46.472 407.72 46.472 
L 269.72 46.472 
Q 267.72 46.472 267.72 48.472 
L 267.72 120.943875 
Q 267.72 122.943875 269.72 122.943875 
z
" style="fill:#ffffff;opacity:0.8;stroke:#cccccc;stroke-linejoin:miter;"/>
    </g>
    <g id="line2d_19">
     <path d="M 271.72 54.570438 
L 291.72 54.570438 
" style="fill:none;stroke:#2ca02c;stroke-linecap:square;stroke-width:1.5;"/>
    </g>
    <g id="line2d_20"/>
    <g id="text_19">
     <!-- $\mu *=$0.18, $\sigma *=$0.19 -->
     <g transform="translate(299.72 58.070438)scale(0.1 -0.1)">
      <defs>
       <path d="M -1.3125 -20.796875 
L 13.375 54.6875 
L 22.40625 54.6875 
L 15.765625 20.65625 
Q 15.578125 19.625 15.421875 18.359375 
Q 15.28125 17.09375 15.28125 15.828125 
Q 15.28125 11.28125 18.140625 8.828125 
Q 21 6.390625 26.3125 6.390625 
Q 33.546875 6.390625 37.984375 10.484375 
Q 42.4375 14.59375 44 22.796875 
L 50.203125 54.6875 
L 59.1875 54.6875 
L 51.03125 12.640625 
Q 50.828125 11.71875 50.75 11.03125 
Q 50.6875 10.359375 50.6875 9.8125 
Q 50.6875 8.296875 51.296875 7.59375 
Q 51.90625 6.890625 53.21875 6.890625 
Q 53.71875 6.890625 54.5625 7.125 
Q 55.421875 7.375 56.984375 8.015625 
L 55.609375 0.78125 
Q 53.46875 -0.296875 51.515625 -0.859375 
Q 49.5625 -1.421875 47.703125 -1.421875 
Q 44.484375 -1.421875 42.65625 0.625 
Q 40.828125 2.6875 40.828125 6.296875 
Q 38.09375 2.390625 34.296875 0.484375 
Q 30.515625 -1.421875 25.390625 -1.421875 
Q 20.84375 -1.421875 17.453125 0.671875 
Q 14.0625 2.78125 12.984375 6.203125 
L 7.71875 -20.796875 
z
" id="DejaVuSans-Oblique-956"/>
       <path d="M 47.015625 60.890625 
L 29.5 51.421875 
L 47.015625 41.890625 
L 44.1875 37.109375 
L 27.78125 47.015625 
L 27.78125 28.609375 
L 22.21875 28.609375 
L 22.21875 47.015625 
L 5.8125 37.109375 
L 2.984375 41.890625 
L 20.515625 51.421875 
L 2.984375 60.890625 
L 5.8125 65.71875 
L 22.21875 55.8125 
L 22.21875 74.21875 
L 27.78125 74.21875 
L 27.78125 55.8125 
L 44.1875 65.71875 
z
" id="DejaVuSans-42"/>
       <path d="M 10.59375 45.40625 
L 73.1875 45.40625 
L 73.1875 37.203125 
L 10.59375 37.203125 
z
M 10.59375 25.484375 
L 73.1875 25.484375 
L 73.1875 17.1875 
L 10.59375 17.1875 
z
" id="DejaVuSans-61"/>
       <path d="M 31.78125 34.625 
Q 24.75 34.625 20.71875 30.859375 
Q 16.703125 27.09375 16.703125 20.515625 
Q 16.703125 13.921875 20.71875 10.15625 
Q 24.75 6.390625 31.78125 6.390625 
Q 38.8125 6.390625 42.859375 10.171875 
Q 46.921875 13.96875 46.921875 20.515625 
Q 46.921875 27.09375 42.890625 30.859375 
Q 38.875 34.625 31.78125 34.625 
z
M 21.921875 38.8125 
Q 15.578125 40.375 12.03125 44.71875 
Q 8.5 49.078125 8.5 55.328125 
Q 8.5 64.0625 14.71875 69.140625 
Q 20.953125 74.21875 31.78125 74.21875 
Q 42.671875 74.21875 48.875 69.140625 
Q 55.078125 64.0625 55.078125 55.328125 
Q 55.078125 49.078125 51.53125 44.71875 
Q 48 40.375 41.703125 38.8125 
Q 48.828125 37.15625 52.796875 32.3125 
Q 56.78125 27.484375 56.78125 20.515625 
Q 56.78125 9.90625 50.3125 4.234375 
Q 43.84375 -1.421875 31.78125 -1.421875 
Q 19.734375 -1.421875 13.25 4.234375 
Q 6.78125 9.90625 6.78125 20.515625 
Q 6.78125 27.484375 10.78125 32.3125 
Q 14.796875 37.15625 21.921875 38.8125 
z
M 18.3125 54.390625 
Q 18.3125 48.734375 21.84375 45.5625 
Q 25.390625 42.390625 31.78125 42.390625 
Q 38.140625 42.390625 41.71875 45.5625 
Q 45.3125 48.734375 45.3125 54.390625 
Q 45.3125 60.0625 41.71875 63.234375 
Q 38.140625 66.40625 31.78125 66.40625 
Q 25.390625 66.40625 21.84375 63.234375 
Q 18.3125 60.0625 18.3125 54.390625 
z
" id="DejaVuSans-56"/>
       <path d="M 11.71875 12.40625 
L 22.015625 12.40625 
L 22.015625 4 
L 14.015625 -11.625 
L 7.71875 -11.625 
L 11.71875 4 
z
" id="DejaVuSans-44"/>
       <path id="DejaVuSans-32"/>
       <path d="M 34.671875 47.5625 
Q 27.25 47.5625 22.21875 42.1875 
Q 16.890625 36.578125 15.140625 27.296875 
Q 13.1875 17.484375 16.3125 11.8125 
Q 19.390625 6.203125 26.65625 6.203125 
Q 33.84375 6.203125 39.109375 11.859375 
Q 44.4375 17.53125 46.34375 27.296875 
Q 48.046875 36.234375 45.015625 42.1875 
Q 42.1875 47.5625 34.671875 47.5625 
z
M 36.078125 54.734375 
L 65.921875 54.6875 
L 64.15625 45.703125 
L 54.109375 45.703125 
Q 57.90625 38.09375 55.859375 27.296875 
Q 53.21875 13.875 45.0625 6.25 
Q 36.859375 -1.421875 25.140625 -1.421875 
Q 13.375 -1.421875 8.203125 6.25 
Q 3.03125 13.875 5.671875 27.296875 
Q 8.25 40.765625 16.40625 48.390625 
Q 23.1875 54.734375 36.078125 54.734375 
z
" id="DejaVuSans-Oblique-963"/>
       <path d="M 10.984375 1.515625 
L 10.984375 10.5 
Q 14.703125 8.734375 18.5 7.8125 
Q 22.3125 6.890625 25.984375 6.890625 
Q 35.75 6.890625 40.890625 13.453125 
Q 46.046875 20.015625 46.78125 33.40625 
Q 43.953125 29.203125 39.59375 26.953125 
Q 35.25 24.703125 29.984375 24.703125 
Q 19.046875 24.703125 12.671875 31.3125 
Q 6.296875 37.9375 6.296875 49.421875 
Q 6.296875 60.640625 12.9375 67.421875 
Q 19.578125 74.21875 30.609375 74.21875 
Q 43.265625 74.21875 49.921875 64.515625 
Q 56.59375 54.828125 56.59375 36.375 
Q 56.59375 19.140625 48.40625 8.859375 
Q 40.234375 -1.421875 26.421875 -1.421875 
Q 22.703125 -1.421875 18.890625 -0.6875 
Q 15.09375 0.046875 10.984375 1.515625 
z
M 30.609375 32.421875 
Q 37.25 32.421875 41.125 36.953125 
Q 45.015625 41.5 45.015625 49.421875 
Q 45.015625 57.28125 41.125 61.84375 
Q 37.25 66.40625 30.609375 66.40625 
Q 23.96875 66.40625 20.09375 61.84375 
Q 16.21875 57.28125 16.21875 49.421875 
Q 16.21875 41.5 20.09375 36.953125 
Q 23.96875 32.421875 30.609375 32.421875 
z
" id="DejaVuSans-57"/>
      </defs>
      <use transform="translate(0 0.78125)" xlink:href="#DejaVuSans-Oblique-956"/>
      <use transform="translate(83.105469 0.78125)" xlink:href="#DejaVuSans-42"/>
      <use transform="translate(172.070312 0.78125)" xlink:href="#DejaVuSans-61"/>
      <use transform="translate(275.341797 0.78125)" xlink:href="#DejaVuSans-48"/>
      <use transform="translate(338.964844 0.78125)" xlink:href="#DejaVuSans-46"/>
      <use transform="translate(370.751953 0.78125)" xlink:href="#DejaVuSans-49"/>
      <use transform="translate(434.375 0.78125)" xlink:href="#DejaVuSans-56"/>
      <use transform="translate(497.998047 0.78125)" xlink:href="#DejaVuSans-44"/>
      <use transform="translate(529.785156 0.78125)" xlink:href="#DejaVuSans-32"/>
      <use transform="translate(561.572266 0.78125)" xlink:href="#DejaVuSans-Oblique-963"/>
      <use transform="translate(644.433594 0.78125)" xlink:href="#DejaVuSans-42"/>
      <use transform="translate(733.398438 0.78125)" xlink:href="#DejaVuSans-61"/>
      <use transform="translate(836.669922 0.78125)" xlink:href="#DejaVuSans-48"/>
      <use transform="translate(900.292969 0.78125)" xlink:href="#DejaVuSans-46"/>
      <use transform="translate(932.080078 0.78125)" xlink:href="#DejaVuSans-49"/>
      <use transform="translate(995.703125 0.78125)" xlink:href="#DejaVuSans-57"/>
     </g>
    </g>
    <g id="line2d_21">
     <path d="M 271.72 69.268875 
L 291.72 69.268875 
" style="fill:none;stroke:#d62728;stroke-linecap:square;stroke-width:1.5;"/>
    </g>
    <g id="line2d_22"/>
    <g id="text_20">
     <!-- $\mu *=$0.13, $\sigma *=$0.15 -->
     <g transform="translate(299.72 72.768875)scale(0.1 -0.1)">
      <use transform="translate(0 0.78125)" xlink:href="#DejaVuSans-Oblique-956"/>
      <use transform="translate(83.105469 0.78125)" xlink:href="#DejaVuSans-42"/>
      <use transform="translate(172.070312 0.78125)" xlink:href="#DejaVuSans-61"/>
      <use transform="translate(275.341797 0.78125)" xlink:href="#DejaVuSans-48"/>
      <use transform="translate(338.964844 0.78125)" xlink:href="#DejaVuSans-46"/>
      <use transform="translate(370.751953 0.78125)" xlink:href="#DejaVuSans-49"/>
      <use transform="translate(434.375 0.78125)" xlink:href="#DejaVuSans-51"/>
      <use transform="translate(497.998047 0.78125)" xlink:href="#DejaVuSans-44"/>
      <use transform="translate(529.785156 0.78125)" xlink:href="#DejaVuSans-32"/>
      <use transform="translate(561.572266 0.78125)" xlink:href="#DejaVuSans-Oblique-963"/>
      <use transform="translate(644.433594 0.78125)" xlink:href="#DejaVuSans-42"/>
      <use transform="translate(733.398438 0.78125)" xlink:href="#DejaVuSans-61"/>
      <use transform="translate(836.669922 0.78125)" xlink:href="#DejaVuSans-48"/>
      <use transform="translate(900.292969 0.78125)" xlink:href="#DejaVuSans-46"/>
      <use transform="translate(932.080078 0.78125)" xlink:href="#DejaVuSans-49"/>
      <use transform="translate(995.703125 0.78125)" xlink:href="#DejaVuSans-53"/>
     </g>
    </g>
    <g id="patch_98">
     <path d="M 271.72 87.467313 
L 291.72 87.467313 
L 291.72 80.467313 
L 271.72 80.467313 
z
" style="fill:#1f77b4;"/>
    </g>
    <g id="text_21">
     <!-- $\mu *=$0.18, $\sigma *=$0.19 -->
     <g transform="translate(299.72 87.467313)scale(0.1 -0.1)">
      <use transform="translate(0 0.78125)" xlink:href="#DejaVuSans-Oblique-956"/>
      <use transform="translate(83.105469 0.78125)" xlink:href="#DejaVuSans-42"/>
      <use transform="translate(172.070312 0.78125)" xlink:href="#DejaVuSans-61"/>
      <use transform="translate(275.341797 0.78125)" xlink:href="#DejaVuSans-48"/>
      <use transform="translate(338.964844 0.78125)" xlink:href="#DejaVuSans-46"/>
      <use transform="translate(370.751953 0.78125)" xlink:href="#DejaVuSans-49"/>
      <use transform="translate(434.375 0.78125)" xlink:href="#DejaVuSans-56"/>
      <use transform="translate(497.998047 0.78125)" xlink:href="#DejaVuSans-44"/>
      <use transform="translate(529.785156 0.78125)" xlink:href="#DejaVuSans-32"/>
      <use transform="translate(561.572266 0.78125)" xlink:href="#DejaVuSans-Oblique-963"/>
      <use transform="translate(644.433594 0.78125)" xlink:href="#DejaVuSans-42"/>
      <use transform="translate(733.398438 0.78125)" xlink:href="#DejaVuSans-61"/>
      <use transform="translate(836.669922 0.78125)" xlink:href="#DejaVuSans-48"/>
      <use transform="translate(900.292969 0.78125)" xlink:href="#DejaVuSans-46"/>
      <use transform="translate(932.080078 0.78125)" xlink:href="#DejaVuSans-49"/>
      <use transform="translate(995.703125 0.78125)" xlink:href="#DejaVuSans-57"/>
     </g>
    </g>
    <g id="patch_99">
     <path d="M 271.72 102.16575 
L 291.72 102.16575 
L 291.72 95.16575 
L 271.72 95.16575 
z
" style="fill:#ff7f0e;"/>
    </g>
    <g id="text_22">
     <!-- $\mu *=$0.13, $\sigma *=$0.15 -->
     <g transform="translate(299.72 102.16575)scale(0.1 -0.1)">
      <use transform="translate(0 0.78125)" xlink:href="#DejaVuSans-Oblique-956"/>
      <use transform="translate(83.105469 0.78125)" xlink:href="#DejaVuSans-42"/>
      <use transform="translate(172.070312 0.78125)" xlink:href="#DejaVuSans-61"/>
      <use transform="translate(275.341797 0.78125)" xlink:href="#DejaVuSans-48"/>
      <use transform="translate(338.964844 0.78125)" xlink:href="#DejaVuSans-46"/>
      <use transform="translate(370.751953 0.78125)" xlink:href="#DejaVuSans-49"/>
      <use transform="translate(434.375 0.78125)" xlink:href="#DejaVuSans-51"/>
      <use transform="translate(497.998047 0.78125)" xlink:href="#DejaVuSans-44"/>
      <use transform="translate(529.785156 0.78125)" xlink:href="#DejaVuSans-32"/>
      <use transform="translate(561.572266 0.78125)" xlink:href="#DejaVuSans-Oblique-963"/>
      <use transform="translate(644.433594 0.78125)" xlink:href="#DejaVuSans-42"/>
      <use transform="translate(733.398438 0.78125)" xlink:href="#DejaVuSans-61"/>
      <use transform="translate(836.669922 0.78125)" xlink:href="#DejaVuSans-48"/>
      <use transform="translate(900.292969 0.78125)" xlink:href="#DejaVuSans-46"/>
      <use transform="translate(932.080078 0.78125)" xlink:href="#DejaVuSans-49"/>
      <use transform="translate(995.703125 0.78125)" xlink:href="#DejaVuSans-53"/>
     </g>
    </g>
    <g id="line2d_23">
     <path d="M 271.72 113.364188 
L 291.72 113.364188 
" style="fill:none;stroke:#000000;stroke-dasharray:5.55,2.4;stroke-dashoffset:0;stroke-width:1.5;"/>
    </g>
    <g id="text_23">
     <!-- Benchmark -->
     <g transform="translate(299.72 116.864188)scale(0.1 -0.1)">
      <defs>
       <path d="M 19.671875 34.8125 
L 19.671875 8.109375 
L 35.5 8.109375 
Q 43.453125 8.109375 47.28125 11.40625 
Q 51.125 14.703125 51.125 21.484375 
Q 51.125 28.328125 47.28125 31.5625 
Q 43.453125 34.8125 35.5 34.8125 
z
M 19.671875 64.796875 
L 19.671875 42.828125 
L 34.28125 42.828125 
Q 41.5 42.828125 45.03125 45.53125 
Q 48.578125 48.25 48.578125 53.8125 
Q 48.578125 59.328125 45.03125 62.0625 
Q 41.5 64.796875 34.28125 64.796875 
z
M 9.8125 72.90625 
L 35.015625 72.90625 
Q 46.296875 72.90625 52.390625 68.21875 
Q 58.5 63.53125 58.5 54.890625 
Q 58.5 48.1875 55.375 44.234375 
Q 52.25 40.28125 46.1875 39.3125 
Q 53.46875 37.75 57.5 32.78125 
Q 61.53125 27.828125 61.53125 20.40625 
Q 61.53125 10.640625 54.890625 5.3125 
Q 48.25 0 35.984375 0 
L 9.8125 0 
z
" id="DejaVuSans-66"/>
       <path d="M 56.203125 29.59375 
L 56.203125 25.203125 
L 14.890625 25.203125 
Q 15.484375 15.921875 20.484375 11.0625 
Q 25.484375 6.203125 34.421875 6.203125 
Q 39.59375 6.203125 44.453125 7.46875 
Q 49.3125 8.734375 54.109375 11.28125 
L 54.109375 2.78125 
Q 49.265625 0.734375 44.1875 -0.34375 
Q 39.109375 -1.421875 33.890625 -1.421875 
Q 20.796875 -1.421875 13.15625 6.1875 
Q 5.515625 13.8125 5.515625 26.8125 
Q 5.515625 40.234375 12.765625 48.109375 
Q 20.015625 56 32.328125 56 
Q 43.359375 56 49.78125 48.890625 
Q 56.203125 41.796875 56.203125 29.59375 
z
M 47.21875 32.234375 
Q 47.125 39.59375 43.09375 43.984375 
Q 39.0625 48.390625 32.421875 48.390625 
Q 24.90625 48.390625 20.390625 44.140625 
Q 15.875 39.890625 15.1875 32.171875 
z
" id="DejaVuSans-101"/>
       <path d="M 48.78125 52.59375 
L 48.78125 44.1875 
Q 44.96875 46.296875 41.140625 47.34375 
Q 37.3125 48.390625 33.40625 48.390625 
Q 24.65625 48.390625 19.8125 42.84375 
Q 14.984375 37.3125 14.984375 27.296875 
Q 14.984375 17.28125 19.8125 11.734375 
Q 24.65625 6.203125 33.40625 6.203125 
Q 37.3125 6.203125 41.140625 7.25 
Q 44.96875 8.296875 48.78125 10.40625 
L 48.78125 2.09375 
Q 45.015625 0.34375 40.984375 -0.53125 
Q 36.96875 -1.421875 32.421875 -1.421875 
Q 20.0625 -1.421875 12.78125 6.34375 
Q 5.515625 14.109375 5.515625 27.296875 
Q 5.515625 40.671875 12.859375 48.328125 
Q 20.21875 56 33.015625 56 
Q 37.15625 56 41.109375 55.140625 
Q 45.0625 54.296875 48.78125 52.59375 
z
" id="DejaVuSans-99"/>
       <path d="M 54.890625 33.015625 
L 54.890625 0 
L 45.90625 0 
L 45.90625 32.71875 
Q 45.90625 40.484375 42.875 44.328125 
Q 39.84375 48.1875 33.796875 48.1875 
Q 26.515625 48.1875 22.3125 43.546875 
Q 18.109375 38.921875 18.109375 30.90625 
L 18.109375 0 
L 9.078125 0 
L 9.078125 75.984375 
L 18.109375 75.984375 
L 18.109375 46.1875 
Q 21.34375 51.125 25.703125 53.5625 
Q 30.078125 56 35.796875 56 
Q 45.21875 56 50.046875 50.171875 
Q 54.890625 44.34375 54.890625 33.015625 
z
" id="DejaVuSans-104"/>
       <path d="M 34.28125 27.484375 
Q 23.390625 27.484375 19.1875 25 
Q 14.984375 22.515625 14.984375 16.5 
Q 14.984375 11.71875 18.140625 8.90625 
Q 21.296875 6.109375 26.703125 6.109375 
Q 34.1875 6.109375 38.703125 11.40625 
Q 43.21875 16.703125 43.21875 25.484375 
L 43.21875 27.484375 
z
M 52.203125 31.203125 
L 52.203125 0 
L 43.21875 0 
L 43.21875 8.296875 
Q 40.140625 3.328125 35.546875 0.953125 
Q 30.953125 -1.421875 24.3125 -1.421875 
Q 15.921875 -1.421875 10.953125 3.296875 
Q 6 8.015625 6 15.921875 
Q 6 25.140625 12.171875 29.828125 
Q 18.359375 34.515625 30.609375 34.515625 
L 43.21875 34.515625 
L 43.21875 35.40625 
Q 43.21875 41.609375 39.140625 45 
Q 35.0625 48.390625 27.6875 48.390625 
Q 23 48.390625 18.546875 47.265625 
Q 14.109375 46.140625 10.015625 43.890625 
L 10.015625 52.203125 
Q 14.9375 54.109375 19.578125 55.046875 
Q 24.21875 56 28.609375 56 
Q 40.484375 56 46.34375 49.84375 
Q 52.203125 43.703125 52.203125 31.203125 
z
" id="DejaVuSans-97"/>
       <path d="M 41.109375 46.296875 
Q 39.59375 47.171875 37.8125 47.578125 
Q 36.03125 48 33.890625 48 
Q 26.265625 48 22.1875 43.046875 
Q 18.109375 38.09375 18.109375 28.8125 
L 18.109375 0 
L 9.078125 0 
L 9.078125 54.6875 
L 18.109375 54.6875 
L 18.109375 46.1875 
Q 20.953125 51.171875 25.484375 53.578125 
Q 30.03125 56 36.53125 56 
Q 37.453125 56 38.578125 55.875 
Q 39.703125 55.765625 41.0625 55.515625 
z
" id="DejaVuSans-114"/>
       <path d="M 9.078125 75.984375 
L 18.109375 75.984375 
L 18.109375 31.109375 
L 44.921875 54.6875 
L 56.390625 54.6875 
L 27.390625 29.109375 
L 57.625 0 
L 45.90625 0 
L 18.109375 26.703125 
L 18.109375 0 
L 9.078125 0 
z
" id="DejaVuSans-107"/>
      </defs>
      <use xlink:href="#DejaVuSans-66"/>
      <use x="68.603516" xlink:href="#DejaVuSans-101"/>
      <use x="130.126953" xlink:href="#DejaVuSans-110"/>
      <use x="193.505859" xlink:href="#DejaVuSans-99"/>
      <use x="248.486328" xlink:href="#DejaVuSans-104"/>
      <use x="311.865234" xlink:href="#DejaVuSans-109"/>
      <use x="409.277344" xlink:href="#DejaVuSans-97"/>
      <use x="470.556641" xlink:href="#DejaVuSans-114"/>
      <use x="511.669922" xlink:href="#DejaVuSans-107"/>
     </g>
    </g>
   </g>
  </g>
 </g>
 <defs>
  <clipPath id="pd0fe8ff06c">
   <rect height="266.112" width="357.12" x="57.6" y="41.472"/>
  </clipPath>
 </defs>
</svg>
